<svg width="54" height="24" viewBox="0 0 54 24" fill="none" xmlns="http://www.w3.org/2000/svg">
  <path d="M52.4804 12L5.98047 12" stroke="currentColor" />
  <path
    d="M2.877 9.88477C1.19652 9.88477 0 10.5301 0 11.9013C0 13.2726 1.19652 13.9179 2.877 13.9179C5.67332 13.9179 6.69505 12.5736 16.993 12.345V11.4577C6.69505 11.1888 5.67332 9.88477 2.877 9.88477Z"
    fill="currentColor" />
  <path
    d="M53.2895 12.009C46.3524 4.68211 46.5675 3.08226 44.5912 1.1329C43.4351 -0.0367099 42.1445 -0.413141 41.2035 0.541372C40.2624 1.49588 40.6388 2.77308 41.795 3.92925C43.6771 5.81138 45.25 5.69039 52.0392 11.9956C45.25 18.341 43.6637 18.22 41.7815 20.0619C40.6254 21.2315 40.2355 22.5086 41.19 23.4631C42.1445 24.4176 43.4217 24.0278 44.5779 22.8582C46.5407 20.9492 46.3524 19.2956 53.2895 12.009Z"
    fill="currentColor" />
</svg>