<svg width="170" height="30" viewBox="0 0 170 30" fill="none" xmlns="http://www.w3.org/2000/svg">
  <path
    d="M17.1052 19.9826C17.7798 20.3729 18.3542 20.8758 18.8691 21.4454C19.301 21.9231 19.627 22.4838 19.9056 23.0643C21.4709 26.3248 24.7683 28.3977 28.3851 28.3948L141.764 28.3036C145.249 28.3008 148.065 25.9958 149.99 23.0918C150.564 22.2315 151.264 21.4215 152.024 20.7171C152.558 20.2191 153.257 19.8417 153.952 19.5902C155.145 19.1575 156.439 19.5851 157.119 20.4907C157.839 21.4517 157.884 23.0515 157.194 24.0477C156.817 24.5961 156.303 24.9734 155.613 24.9181C154.994 24.8628 154.38 24.742 153.766 24.6213L153.766 24.6212C153.214 24.5093 152.682 24.8608 152.791 25.4134C153.078 26.8693 154.044 28.2392 155.261 28.8675C157.139 29.8385 159.636 29.4813 160.426 27.2676C160.47 27.1578 160.658 27.2456 160.749 27.3217C160.839 27.3978 160.936 27.4795 161.025 27.5694C162.042 28.5706 163.225 28.8423 164.61 28.475C166.885 27.8764 168.894 25.5721 169.081 23.2478C169.093 23.1306 169.06 23.0094 169.025 22.8955C168.989 22.7795 168.887 22.6049 168.778 22.6591C168.446 22.8151 168.104 22.961 167.777 23.132C165.501 24.3093 163.452 23.9219 161.816 21.9548C161.257 21.2806 160.819 20.5109 160.301 19.7965C159.757 19.0519 159.243 18.2771 158.629 17.5979C157.169 15.993 155.337 15.5452 153.247 16.0282C151.334 16.4709 149.819 17.5476 148.48 18.9261C148.018 19.4028 147.232 19.2237 146.947 18.6241C146.659 18.0161 146.301 17.4858 145.766 17.0797C145.665 17.0032 145.564 16.9275 145.462 16.8524C144.353 16.0344 144.478 14.4046 145.529 13.5125C146.16 12.9768 146.689 12.3456 147.044 11.5444C147.259 11.0583 147.937 10.8788 148.299 11.2688C149.366 12.4159 150.579 13.3768 152.034 13.9856C154.858 15.1729 157.456 14.4786 159.294 12.0436C159.752 11.4399 160.144 10.7959 160.567 10.172C160.92 9.65385 161.252 9.11552 161.64 8.62247C163.361 6.44906 165.421 6.02142 167.867 7.30434C168.004 7.37717 168.143 7.44909 168.287 7.52359C168.609 7.6899 169.1 7.52069 169.081 7.15842C168.924 4.60767 166.558 2.09719 164.031 1.77521C162.974 1.63937 162.037 1.90097 161.232 2.61035C160.862 2.93172 160.277 2.73854 160.018 2.32238C159.564 1.59097 158.858 1.21183 157.985 1.06581C156.726 0.854505 155.568 1.15136 154.566 1.96639C153.504 2.8267 152.975 3.99389 152.658 5.28184C152.557 5.67593 153.036 5.9623 153.425 5.84249C153.556 5.80213 153.683 5.76821 153.811 5.74469C154.466 5.62898 155.13 5.48308 155.785 5.49818C156.162 5.50321 156.6 5.72962 156.892 5.99124C157.708 6.72074 157.909 8.32059 157.406 9.39221C156.907 10.4538 155.704 11.0676 154.486 10.9116C153.444 10.7808 152.598 10.2525 151.843 9.56328C150.871 8.67781 150.086 7.6414 149.502 6.46916C148.174 3.80539 145.536 2.04245 142.56 2.04341L28.9766 2.08001C25.0838 2.08127 21.9694 4.7051 19.6929 7.86278C19.2046 8.53191 18.6206 9.15073 18.0114 9.71924C17.3267 10.3532 16.5212 10.7959 15.5597 10.9066C14.3111 11.0525 13.1583 10.4538 12.6599 9.36706C12.1615 8.28538 12.383 6.6855 13.1985 5.97109C13.4905 5.71451 13.9386 5.49314 14.3111 5.49314C15.0109 5.49314 15.7107 5.6642 16.4054 5.78495C16.9421 5.87287 17.4404 5.50073 17.3203 4.97032C17.0875 3.94165 16.6145 3.09346 15.9121 2.33868C14.9606 1.31738 13.7624 0.904834 12.393 1.02055C11.2905 1.11111 10.3843 1.584 9.86576 2.63046C9.71088 2.94817 9.25779 2.96851 8.9903 2.73749C7.38207 1.34852 6.0536 1.52979 4.41854 2.27831C2.37961 3.20906 1.41302 4.99508 1.00523 7.11315C0.93584 7.49951 1.52976 7.66184 1.87635 7.47754C2.061 7.37936 2.23484 7.28731 2.40982 7.19868C4.61489 6.08681 6.55313 6.439 8.16917 8.31055C8.71289 8.94446 9.12572 9.68403 9.62412 10.3582C10.2685 11.2336 10.8727 12.1593 11.6127 12.9441C12.9569 14.3629 14.6585 14.7805 16.5665 14.4132C18.7263 13.9957 20.3776 12.753 21.8376 11.1933C22.1804 10.8216 22.818 10.9986 23.0165 11.4637C23.6695 12.9936 24.9057 13.9241 26.3383 14.6849C26.7016 14.8703 26.6413 15.4196 26.3074 15.6537C25.5914 16.1559 24.9098 16.6291 24.249 17.135C23.5617 17.6634 23.2001 18.4071 22.8817 19.2172C22.7379 19.5831 22.2705 19.652 22.0087 19.3587C20.8559 18.0557 19.5368 16.9791 17.8956 16.3301C15.308 15.3088 13.0223 15.8118 11.1747 17.8846C10.6511 18.4733 10.2232 19.1575 9.7651 19.8065C9.35731 20.3901 8.99483 21.0089 8.56691 21.5775C6.7797 23.9471 4.65517 24.3948 2.07252 22.9811C2.018 22.9514 1.96289 22.9232 1.90654 22.8958C1.5233 22.7094 0.98532 22.9862 1.04048 23.4088C1.35764 25.884 3.33114 27.9921 5.76779 28.5354C6.9257 28.797 7.92251 28.5203 8.81863 27.7908C9.207 27.4755 9.77899 27.6083 10.0614 28.0212C10.4681 28.6158 11.0032 29.0142 11.7386 29.2196C14.186 29.9005 16.8167 28.0395 17.2997 25.5474C17.4225 24.9137 16.7979 24.5361 16.1638 24.6565C15.5496 24.7722 14.9203 24.9231 14.3111 24.8778C13.8983 24.8426 13.3999 24.5961 13.1281 24.2842C11.8644 22.8201 12.2219 20.1034 14.4622 19.5147C15.4338 19.2581 16.2897 19.5147 17.1052 19.9826Z"
    stroke="#F3FFD5" stroke-miterlimit="10" />
</svg>