<svg width="290" height="42" viewBox="0 0 290 42" fill="none" xmlns="http://www.w3.org/2000/svg">
  <path
    d="M23.9869 28.0277C25.0491 28.6354 25.9373 29.4366 26.7294 30.3443C27.1821 30.8631 27.5373 31.4575 27.838 32.077L28.9033 34.2716C30.5768 37.7193 34.0734 39.9072 37.9057 39.9048L251.499 39.771C255.574 39.7684 258.983 37.1603 261.004 33.6213C261.237 33.2124 261.484 32.8103 261.748 32.4165C262.568 31.2021 263.566 30.0587 264.651 29.0645C265.413 28.3614 266.412 27.8288 267.403 27.4737C269.106 26.863 270.953 27.4666 271.923 28.7449C272.951 30.1013 273.015 32.3597 272.031 33.7658C271.492 34.5399 270.759 35.0725 269.775 34.9944C268.891 34.9163 268.014 34.7458 267.138 34.5754C266.349 34.4173 265.59 34.9206 265.749 35.709C266.163 37.7583 267.539 39.6846 269.272 40.5692C271.952 41.9399 275.516 41.4356 276.644 38.3109C276.707 38.1545 276.975 38.2799 277.105 38.3878C277.234 38.4951 277.371 38.6103 277.499 38.737C278.951 40.1502 280.639 40.5337 282.615 40.0153C285.863 39.1702 288.73 35.9176 288.996 32.6367C289.014 32.4721 288.967 32.3019 288.917 32.1419C288.866 31.9766 288.72 31.7291 288.565 31.8058C288.091 32.0259 287.602 32.2318 287.135 32.4733C283.887 34.1351 280.963 33.5883 278.627 30.8115C277.83 29.8599 277.205 28.7733 276.464 27.7649C275.688 26.7139 274.956 25.6202 274.079 24.6614C271.995 22.396 269.38 21.764 266.397 22.4457C263.667 23.0707 261.504 24.5904 259.593 26.5363C258.93 27.2123 257.812 26.9558 257.402 26.1029C256.991 25.2476 256.481 24.5017 255.72 23.93C255.586 23.8298 255.452 23.7307 255.318 23.6322C253.728 22.4713 253.906 20.1412 255.409 18.8705C256.296 18.121 257.039 17.239 257.54 16.1232C257.85 15.4316 258.816 15.1742 259.334 15.7276C260.857 17.3467 262.589 18.7031 264.666 19.5624C268.697 21.2384 272.405 20.2584 275.027 16.8212C275.681 15.969 276.242 15.06 276.845 14.1794C277.348 13.4479 277.823 12.688 278.376 11.9921C280.833 8.92413 283.772 8.32049 287.264 10.1314C287.463 10.2354 287.662 10.3381 287.871 10.4446C288.329 10.6781 289.024 10.4386 288.996 9.92545C288.773 6.32489 285.396 2.78118 281.789 2.32668C280.28 2.13493 278.943 2.5042 277.794 3.50554C277.264 3.96115 276.431 3.68426 276.058 3.09304C275.409 2.06454 274.403 1.53104 273.159 1.32532C271.363 1.02705 269.71 1.44608 268.28 2.59655C266.764 3.81094 266.009 5.4585 265.557 7.27653C265.413 7.83318 266.09 8.2397 266.64 8.07129C266.831 8.01284 267.015 7.96372 267.202 7.92988C268.136 7.76654 269.085 7.5606 270.019 7.5819C270.558 7.589 271.183 7.90861 271.6 8.27789C272.764 9.30764 273.051 11.5659 272.333 13.0786C271.621 14.5771 269.904 15.4435 268.165 15.2233C266.678 15.0387 265.471 14.293 264.393 13.3201C263.006 12.0702 261.885 10.6072 261.051 8.95252C260.971 8.79326 260.892 8.63374 260.813 8.47391C259.09 4.98993 255.628 2.70367 251.741 2.70465L38.5169 2.75817C34.4139 2.75919 30.9631 5.38849 28.9392 8.95758C28.5572 9.63122 28.1417 10.2867 27.6803 10.9197C26.9833 11.8642 26.1498 12.7377 25.2803 13.5402C24.3031 14.435 23.1534 15.06 21.7809 15.2162C19.9989 15.4222 18.3535 14.5771 17.6421 13.0431C16.9307 11.5162 17.2468 9.2579 18.4109 8.24946C18.8277 7.88727 19.4672 7.57479 19.9989 7.57479C20.9977 7.57479 21.9965 7.81626 22.9881 7.9867C23.7545 8.11087 24.465 7.5777 24.2904 6.82126C23.9567 5.37621 23.2829 4.18368 22.2839 3.12206C20.9259 1.68042 19.2157 1.09809 17.2612 1.26143C15.6876 1.38926 14.3942 2.05678 13.6541 3.53393C13.4318 3.98473 12.7885 4.01318 12.4064 3.68666C10.1102 1.72424 8.21364 1.97996 5.87926 3.03685C2.96911 4.35066 1.5895 6.87175 1.00747 9.86155C0.90808 10.4088 1.75133 10.6386 2.24362 10.3797C2.50985 10.2397 2.76021 10.1085 3.01223 9.98227C6.15951 8.4128 8.92595 8.90993 11.2325 11.5518C12.0086 12.4466 12.5978 13.4905 13.3092 14.4421C14.2289 15.6778 15.0912 16.9845 16.1475 18.0924C18.066 20.0951 20.4947 20.6845 23.218 20.1661C26.3007 19.5767 28.6575 17.8225 30.7414 15.621C31.2332 15.0935 32.1404 15.3473 32.4269 16.0092C33.3596 18.1649 35.1226 19.4767 37.1653 20.5496C37.6805 20.8096 37.596 21.5878 37.1217 21.9168C36.0996 22.6257 35.1266 23.2939 34.1832 24.0081C33.2031 24.7532 32.6872 25.8015 32.2331 26.9436C32.026 27.4643 31.3611 27.563 30.9856 27.147C29.3402 25.3077 27.4575 23.788 25.115 22.8718C21.4217 21.4302 18.1594 22.1403 15.5223 25.0662C14.775 25.8971 14.1643 26.863 13.5104 27.7791C12.9283 28.6029 12.411 29.4764 11.8002 30.2789C9.24933 33.6238 6.217 34.2558 2.53081 32.2602C2.4497 32.2165 2.36769 32.1752 2.28372 32.135C1.73989 31.8745 0.978874 32.2661 1.05777 32.8639C1.51046 36.3579 4.32722 39.3335 7.80503 40.1005C9.45772 40.4698 10.8805 40.0792 12.1595 39.0494C12.7159 38.6027 13.53 38.7929 13.9365 39.3793C14.5166 40.216 15.2795 40.7768 16.3271 41.0664C19.8145 42.0258 23.5627 39.4092 24.261 35.9002C24.441 34.9961 23.5492 34.4551 22.6432 34.6251C21.7666 34.7885 20.8684 35.0015 19.9989 34.9376C19.4097 34.8879 18.6984 34.5399 18.3103 34.0996C16.5068 32.033 17.0169 28.1981 20.2145 27.3672C21.6013 27.005 22.8228 27.3672 23.9869 28.0277Z"
    stroke="#69626D" stroke-miterlimit="10" />
</svg>