<svg width="36" height="30" fill="none" xmlns="http://www.w3.org/2000/svg">
  <path
    d="M35.5 2.06032L28.9766 2.07044C25.0829 2.07648 21.9699 4.70273 19.6929 7.86113V7.86113C19.2046 8.53027 18.6206 9.14909 18.0114 9.7176C17.3267 10.3515 16.5212 10.7942 15.5597 10.9049C14.3111 11.0508 13.1583 10.4521 12.6599 9.36542C12.1615 8.28374 12.383 6.68386 13.1985 5.96945C13.4905 5.71287 13.9386 5.49149 14.3111 5.49149C15.0109 5.49149 15.7107 5.66256 16.4054 5.78331V5.78331C16.9421 5.87123 17.4404 5.49909 17.3203 4.96868C17.0875 3.94 16.6145 3.09182 15.9121 2.33704C14.9606 1.31573 13.7624 0.903191 12.393 1.01891C11.2905 1.10946 10.3843 1.58236 9.86576 2.62882V2.62882C9.71088 2.94652 9.25779 2.96687 8.9903 2.73585C7.38207 1.34688 6.0536 1.52814 4.41854 2.27667C2.37961 3.20742 1.41302 4.99344 1.00523 7.11151V7.11151C0.93584 7.49787 1.52976 7.66019 1.87635 7.4759C2.061 7.37771 2.23484 7.28566 2.40982 7.19703C4.61489 6.08517 6.55313 6.43735 8.16917 8.30891C8.71289 8.94282 9.12572 9.68239 9.62412 10.3566C10.2685 11.232 10.8727 12.1576 11.6127 12.9425C12.9569 14.3613 14.6585 14.7789 16.5665 14.4116C18.7263 13.994 20.3776 12.7513 21.8376 11.1917V11.1917C22.1804 10.8199 22.818 10.9969 23.0165 11.4621C23.6695 12.992 24.9057 13.9224 26.3383 14.6833V14.6833C26.7016 14.8686 26.6413 15.4179 26.3074 15.6521C25.5914 16.1542 24.9098 16.6275 24.249 17.1334C23.5617 17.6618 23.2001 18.4054 22.8817 19.2155C22.7379 19.5814 22.2705 19.6504 22.0087 19.3571V19.3571C20.8559 18.0541 19.5368 16.9774 17.8956 16.3284C15.308 15.3071 13.0223 15.8102 11.1747 17.883C10.6511 18.4716 10.2232 19.1559 9.7651 19.8049C9.35731 20.3885 8.99483 21.0073 8.56691 21.5758C6.7797 23.9454 4.65517 24.3932 2.07252 22.9795C2.018 22.9497 1.96289 22.9216 1.90654 22.8942C1.5233 22.7078 0.98532 22.9845 1.04048 23.4071V23.4071C1.35764 25.8824 3.33114 27.9904 5.76779 28.5338C6.9257 28.7954 7.92251 28.5187 8.81863 27.7892V27.7892C9.207 27.4738 9.77899 27.6067 10.0614 28.0196C10.4681 28.6142 11.0032 29.0125 11.7386 29.218C14.186 29.8988 16.8167 28.0379 17.2997 25.5457C17.4225 24.9121 16.7979 24.5345 16.1638 24.6548V24.6548C15.5496 24.7705 14.9203 24.9215 14.3111 24.8762C13.8983 24.841 13.3999 24.5945 13.1281 24.2825C11.8644 22.8185 12.2219 20.1017 14.4622 19.5131C15.4338 19.2565 16.2897 19.5131 17.1052 19.981C17.7806 20.3717 18.3557 20.8754 18.871 21.4458C19.3015 21.9223 19.6266 22.4813 19.9044 23.0601V23.0601C21.4696 26.3205 24.7713 28.389 28.3878 28.3751L35.5176 28.3476"
    stroke="#F3FFD5" stroke-miterlimit="10" />
</svg>