<svg width="36" height="30" viewBox="0 0 36 30" fill="none" xmlns="http://www.w3.org/2000/svg">
  <path
    d="M0.535278 2.06032L7.05872 2.07044C10.9523 2.07648 14.0653 4.70273 16.3424 7.86113V7.86113C16.8307 8.53027 17.4147 9.14909 18.0239 9.7176C18.7085 10.3515 19.514 10.7942 20.4756 10.9049C21.7241 11.0508 22.877 10.4521 23.3754 9.36542C23.8738 8.28374 23.6523 6.68386 22.8367 5.96945C22.5448 5.71287 22.0967 5.49149 21.7241 5.49149C21.0244 5.49149 20.3246 5.66256 19.6298 5.78331V5.78331C19.0932 5.87123 18.5949 5.49909 18.7149 4.96868C18.9478 3.94 19.4208 3.09182 20.1232 2.33704C21.0747 1.31573 22.2729 0.903191 23.6422 1.01891C24.7448 1.10946 25.651 1.58236 26.1695 2.62882V2.62882C26.3244 2.94652 26.7775 2.96687 27.045 2.73585C28.6532 1.34688 29.9817 1.52814 31.6167 2.27667C33.6557 3.20742 34.6223 4.99344 35.03 7.11151V7.11151C35.0994 7.49787 34.5055 7.66019 34.1589 7.4759C33.9743 7.37771 33.8004 7.28566 33.6255 7.19703C31.4204 6.08517 29.4821 6.43735 27.8661 8.30891C27.3224 8.94282 26.9096 9.68239 26.4112 10.3566C25.7668 11.232 25.1626 12.1576 24.4226 12.9425C23.0784 14.3613 21.3768 14.7789 19.4687 14.4116C17.309 13.994 15.6577 12.7513 14.1977 11.1917V11.1917C13.8549 10.8199 13.2173 10.9969 13.0188 11.4621C12.3658 12.992 11.1295 13.9224 9.69695 14.6833V14.6833C9.33364 14.8686 9.39395 15.4179 9.7279 15.6521C10.4439 16.1542 11.1254 16.6275 11.7862 17.1334C12.4736 17.6618 12.8352 18.4054 13.1536 19.2155C13.2974 19.5814 13.7648 19.6504 14.0265 19.3571V19.3571C15.1794 18.0541 16.4984 16.9774 18.1396 16.3284C20.7273 15.3071 23.0129 15.8102 24.8606 17.883C25.3841 18.4716 25.812 19.1559 26.2702 19.8049C26.678 20.3885 27.0404 21.0073 27.4684 21.5758C29.2556 23.9454 31.3801 24.3932 33.9628 22.9795C34.0173 22.9497 34.0724 22.9216 34.1287 22.8942C34.512 22.7078 35.05 22.9845 34.9948 23.4071V23.4071C34.6776 25.8824 32.7041 27.9904 30.2675 28.5338C29.1096 28.7954 28.1128 28.5187 27.2166 27.7892V27.7892C26.8283 27.4738 26.2563 27.6067 25.9738 28.0196C25.5672 28.6142 25.0321 29.0125 24.2967 29.218C21.8493 29.8988 19.2186 28.0379 18.7356 25.5457C18.6127 24.9121 19.2373 24.5345 19.8715 24.6548V24.6548C20.4857 24.7705 21.115 24.9215 21.7241 24.8762C22.137 24.841 22.6353 24.5945 22.9072 24.2825C24.1708 22.8185 23.8134 20.1017 21.5731 19.5131C20.6015 19.2565 19.7456 19.5131 18.93 19.981C18.2546 20.3717 17.6796 20.8754 17.1643 21.4458C16.7338 21.9223 16.4087 22.4813 16.1308 23.0601V23.0601C14.5657 26.3205 11.264 28.389 7.64745 28.3751L0.517654 28.3476"
    stroke="#F3FFD5" stroke-miterlimit="10" />
</svg>