<svg width="141" height="30" viewBox="0 0 141 30" fill="none" xmlns="http://www.w3.org/2000/svg">
  <path
    d="M17.1052 19.9826C17.7799 20.3729 18.3544 20.8759 18.8693 21.4456C19.301 21.9231 19.6269 22.4837 19.9056 23.0641C21.4708 26.3246 24.7686 28.3972 28.3853 28.3934L112.764 28.305C116.249 28.3013 119.065 25.996 120.99 23.0918C121.564 22.2315 122.264 21.4215 123.024 20.7171C123.558 20.2191 124.257 19.8417 124.952 19.5902C126.145 19.1575 127.439 19.5851 128.119 20.4907C128.839 21.4517 128.884 23.0515 128.194 24.0477C127.817 24.5961 127.303 24.9734 126.613 24.9181C125.994 24.8628 125.38 24.7421 124.766 24.6213L124.766 24.6212C124.214 24.5093 123.682 24.8608 123.791 25.4134C124.078 26.8693 125.044 28.2392 126.261 28.8675C128.139 29.8385 130.636 29.4813 131.426 27.2676C131.47 27.1578 131.658 27.2456 131.749 27.3217C131.839 27.3978 131.936 27.4795 132.025 27.5694C133.042 28.5706 134.225 28.8423 135.61 28.475C137.885 27.8764 139.894 25.5721 140.081 23.2478C140.093 23.1306 140.06 23.0094 140.025 22.8955C139.989 22.7795 139.887 22.6049 139.778 22.6591C139.446 22.8151 139.104 22.961 138.777 23.132C136.501 24.3093 134.452 23.9219 132.816 21.9548C132.257 21.2806 131.819 20.5109 131.301 19.7965C130.757 19.0519 130.243 18.2771 129.629 17.5979C128.169 15.993 126.337 15.5452 124.247 16.0282C122.334 16.4709 120.819 17.5476 119.48 18.9261C119.018 19.4028 118.232 19.2237 117.947 18.6241C117.659 18.0161 117.301 17.4858 116.766 17.0797C116.665 17.0032 116.564 16.9275 116.462 16.8524C115.353 16.0344 115.478 14.4046 116.529 13.5125C117.16 12.9768 117.689 12.3456 118.044 11.5444C118.259 11.0583 118.937 10.8788 119.299 11.2688C120.366 12.4159 121.579 13.3768 123.034 13.9856C125.858 15.1729 128.456 14.4786 130.294 12.0436C130.752 11.4399 131.144 10.7959 131.567 10.172C131.92 9.65385 132.252 9.11552 132.64 8.62247C134.361 6.44906 136.421 6.02142 138.867 7.30434C139.004 7.37717 139.143 7.44909 139.287 7.52359C139.609 7.6899 140.1 7.52069 140.081 7.15842C139.924 4.60767 137.558 2.09719 135.031 1.77521C133.974 1.63937 133.037 1.90097 132.232 2.61035C131.862 2.93172 131.277 2.73854 131.018 2.32238C130.564 1.59097 129.858 1.21183 128.985 1.06581C127.726 0.854505 126.568 1.15136 125.566 1.96639C124.504 2.8267 123.975 3.99389 123.658 5.28184C123.557 5.67593 124.036 5.9623 124.425 5.84249C124.556 5.80213 124.683 5.76821 124.811 5.74469C125.466 5.62898 126.13 5.48308 126.785 5.49818C127.162 5.50321 127.6 5.72962 127.892 5.99124C128.708 6.72074 128.909 8.32059 128.406 9.39221C127.907 10.4538 126.704 11.0676 125.486 10.9116C124.444 10.7808 123.598 10.2525 122.843 9.56328C121.871 8.67781 121.086 7.6414 120.502 6.46916C119.174 3.80543 116.536 2.04264 113.56 2.04389L28.9766 2.07939C25.0838 2.08102 21.9695 4.70504 19.6929 7.86278C19.2046 8.53191 18.6206 9.15073 18.0114 9.71924C17.3267 10.3532 16.5212 10.7959 15.5597 10.9066C14.3111 11.0525 13.1583 10.4538 12.6599 9.36706C12.1615 8.28538 12.383 6.6855 13.1985 5.97109C13.4905 5.71451 13.9386 5.49314 14.3111 5.49314C15.0109 5.49314 15.7107 5.6642 16.4054 5.78495C16.9421 5.87287 17.4404 5.50073 17.3203 4.97032C17.0875 3.94165 16.6145 3.09346 15.9121 2.33868C14.9606 1.31738 13.7624 0.904834 12.393 1.02055C11.2905 1.11111 10.3843 1.584 9.86576 2.63046C9.71088 2.94817 9.25779 2.96851 8.9903 2.73749C7.38207 1.34852 6.0536 1.52979 4.41854 2.27831C2.37961 3.20906 1.41302 4.99508 1.00523 7.11315C0.93584 7.49951 1.52976 7.66184 1.87635 7.47754C2.061 7.37936 2.23484 7.28731 2.40982 7.19868C4.61489 6.08681 6.55313 6.439 8.16917 8.31055C8.71289 8.94446 9.12572 9.68403 9.62412 10.3582C10.2685 11.2336 10.8727 12.1593 11.6127 12.9441C12.9569 14.3629 14.6585 14.7805 16.5665 14.4132C18.7263 13.9957 20.3776 12.753 21.8376 11.1933C22.1804 10.8216 22.818 10.9986 23.0165 11.4637C23.6695 12.9936 24.9057 13.9241 26.3383 14.6849C26.7016 14.8703 26.6413 15.4196 26.3074 15.6537C25.5914 16.1559 24.9098 16.6291 24.249 17.135C23.5617 17.6634 23.2001 18.4071 22.8817 19.2172C22.7379 19.5831 22.2705 19.652 22.0087 19.3587C20.8559 18.0557 19.5368 16.9791 17.8956 16.3301C15.308 15.3088 13.0223 15.8118 11.1747 17.8846C10.6511 18.4733 10.2232 19.1575 9.7651 19.8065C9.35731 20.3901 8.99483 21.0089 8.56691 21.5775C6.7797 23.9471 4.65517 24.3948 2.07252 22.9811C2.018 22.9514 1.96289 22.9232 1.90654 22.8958C1.5233 22.7094 0.98532 22.9862 1.04048 23.4088C1.35764 25.884 3.33114 27.9921 5.76779 28.5354C6.9257 28.797 7.92251 28.5203 8.81863 27.7908C9.207 27.4755 9.77899 27.6083 10.0614 28.0212C10.4681 28.6158 11.0032 29.0142 11.7386 29.2196C14.186 29.9005 16.8167 28.0395 17.2997 25.5474C17.4225 24.9137 16.7979 24.5361 16.1638 24.6565C15.5496 24.7722 14.9203 24.9231 14.3111 24.8778C13.8983 24.8426 13.3999 24.5961 13.1281 24.2842C11.8644 22.8201 12.2219 20.1034 14.4622 19.5147C15.4338 19.2581 16.2897 19.5147 17.1052 19.9826Z"
    stroke="#F3FFD5" stroke-miterlimit="10" />
</svg>