<svg width="275" height="32" viewBox="0 0 275 32" fill="none" xmlns="http://www.w3.org/2000/svg">
  <path
    d="M18.2402 21.0687C19.0365 21.5237 19.7024 22.1234 20.2963 22.8029C20.6364 23.192 20.9032 23.6379 21.1291 24.1027L21.9268 25.7437C23.1825 28.3271 25.8033 29.9663 28.6756 29.965L245.876 29.8632C248.931 29.8617 251.487 27.9067 253.005 25.2546C253.179 24.9495 253.364 24.6495 253.561 24.3557C254.176 23.4462 254.925 22.5898 255.739 21.8452C256.31 21.3186 257.059 20.9197 257.803 20.6538C259.08 20.1963 260.465 20.6484 261.192 21.6058C261.963 22.6217 262.012 24.3132 261.273 25.3663C260.869 25.9461 260.319 26.345 259.581 26.2865C258.918 26.228 258.261 26.1003 257.603 25.9727C257.012 25.8542 256.442 26.2319 256.562 26.8232C256.873 28.3575 257.905 29.7994 259.204 30.4618C261.214 31.4884 263.887 31.1107 264.733 28.7704C264.781 28.6532 264.982 28.7472 265.079 28.8281C265.176 28.9084 265.278 28.9947 265.374 29.0895C266.463 30.148 267.729 30.4352 269.211 30.047C271.647 29.414 273.798 26.9779 273.997 24.5206C274.011 24.3974 273.976 24.2701 273.938 24.1503C273.899 24.0264 273.79 23.8409 273.674 23.8983C273.318 24.0632 272.952 24.2174 272.601 24.3983C270.165 25.6429 267.972 25.2333 266.221 23.1537C265.622 22.4409 265.153 21.6271 264.598 20.8719C264.016 20.0847 263.467 19.2655 262.809 18.5475C261.246 16.8507 259.285 16.3774 257.048 16.888C255 17.356 253.378 18.4943 251.945 19.9517C251.448 20.4583 250.609 20.2658 250.301 19.6264C249.993 18.9861 249.611 18.4277 249.04 17.9996C248.941 17.9254 248.841 17.8518 248.741 17.7788C247.549 16.9087 247.682 15.1608 248.81 14.208C249.473 13.6473 250.029 12.9875 250.405 12.1533C250.638 11.6348 251.362 11.4416 251.751 11.8563C252.893 13.069 254.192 14.0849 255.749 14.7285C258.773 15.9838 261.553 15.2498 263.521 12.6754C264.011 12.0372 264.431 11.3563 264.884 10.6968C265.261 10.149 265.617 9.57982 266.032 9.05857C267.875 6.76081 270.079 6.30871 272.698 7.66502C272.847 7.74304 272.997 7.82007 273.154 7.89995C273.497 8.07469 274.018 7.89522 273.997 7.51076C273.83 4.81407 271.297 2.15997 268.592 1.81956C267.46 1.67595 266.458 1.95252 265.595 2.70248C265.198 3.04391 264.573 2.83611 264.293 2.39295C263.806 1.62302 263.052 1.22361 262.119 1.06957C260.772 0.846181 259.533 1.16002 258.46 2.02168C257.323 2.93121 256.757 4.16518 256.418 5.52682C256.31 5.94376 256.817 6.24844 257.229 6.12238C257.373 6.07847 257.511 6.04156 257.652 6.01615C258.352 5.89381 259.064 5.73957 259.764 5.75553C260.168 5.76084 260.637 6.00022 260.95 6.2768C261.823 7.04804 262.039 8.73942 261.5 9.87235C260.966 10.9946 259.678 11.6436 258.374 11.4787C257.258 11.3404 256.353 10.7819 255.545 10.0532C254.504 9.11708 253.664 8.02137 253.039 6.78207C252.979 6.66347 252.919 6.54468 252.86 6.42565C251.567 3.81488 248.972 2.10179 246.059 2.10234L29.1354 2.14305C26.0593 2.14362 23.4721 4.11437 21.9526 6.789C21.6666 7.29243 21.3556 7.78231 21.0102 8.25541C20.4875 8.96283 19.8623 9.61705 19.2102 10.2181C18.4773 10.8883 17.615 11.3563 16.5857 11.4733C15.2492 11.6276 14.0151 10.9946 13.4816 9.84576C12.948 8.7022 13.1851 7.01079 14.0582 6.2555C14.3707 5.98424 14.8504 5.7502 15.2492 5.7502C15.9983 5.7502 16.7474 5.93105 17.4911 6.05871C18.0659 6.15171 18.5987 5.75165 18.4674 5.18437C18.2171 4.10274 17.7118 3.21003 16.963 2.41527C15.9444 1.33553 14.6618 0.899389 13.1959 1.02172C12.0157 1.11746 11.0456 1.61742 10.4905 2.72375C10.3238 3.06159 9.84159 3.08287 9.55501 2.83829C7.83271 1.36834 6.41029 1.55985 4.65945 2.35145C2.47683 3.33545 1.44212 5.22365 1.0056 7.4629C0.931028 7.87296 1.56305 8.04511 1.93204 7.85132C2.13197 7.74632 2.31994 7.64797 2.50917 7.55332C4.86963 6.37784 6.94447 6.75017 8.67439 8.7288C9.25642 9.39898 9.69834 10.1809 10.2319 10.8936C10.9217 11.8191 11.5684 12.7977 12.3606 13.6275C13.7995 15.1274 15.621 15.5689 17.6635 15.1806C19.9755 14.7392 21.7432 13.4254 23.306 11.7765C23.6752 11.3812 24.3553 11.5716 24.5704 12.0679C25.2701 13.6821 26.5922 14.6644 28.124 15.4678C28.5101 15.6624 28.4468 16.2456 28.0913 16.4918C27.3247 17.0227 26.5949 17.5232 25.8874 18.0581C25.1525 18.6161 24.7655 19.4011 24.4249 20.2564C24.2695 20.6468 23.771 20.7208 23.4892 20.4091C22.2551 19.0315 20.8432 17.8933 19.0863 17.2071C16.3163 16.1274 13.8696 16.6593 11.8917 18.8507C11.3313 19.473 10.8732 20.1963 10.3828 20.8825C9.94626 21.4995 9.55824 22.1537 9.10016 22.7547C7.187 25.2599 4.91275 25.7333 2.1481 24.2387C2.08697 24.2058 2.02515 24.1747 1.96184 24.1444C1.55427 23.9496 0.98414 24.243 1.04333 24.6908C1.38285 27.3077 3.49541 29.5363 6.10378 30.1108C7.34329 30.3874 8.41034 30.0948 9.36962 29.3236C9.78711 28.9888 10.3975 29.1315 10.7027 29.5711C11.1377 30.1975 11.7098 30.6174 12.4953 30.8342C15.1104 31.5526 17.9208 29.5939 18.4455 26.9666C18.5809 26.2885 17.912 25.8825 17.2324 26.0099C16.5749 26.1322 15.9013 26.2918 15.2492 26.2439C14.8073 26.2067 14.2738 25.9461 13.9828 25.6163C12.6301 24.0685 13.0127 21.1963 15.4109 20.574C16.451 20.3027 17.3671 20.574 18.2402 21.0687Z"
    stroke="#D22630" stroke-width="0.75" stroke-miterlimit="10" />
</svg>