<svg width="120" height="120" viewBox="0 0 146 96" fill="none" xmlns="http://www.w3.org/2000/svg"
  style="background-color: white">
  <path
    d="M110.368 88.1973C97.9896 88.1973 87.5114 83.9602 75.3572 73.2573L72.2075 70.485C83.2428 63.3633 89.1829 51.3709 89.1829 38.5787C89.1829 18.2874 74.0183 0 47.4813 0C20.9444 0 6 18.2874 6 38.5787C6 58.8701 21.1646 77.1575 47.7015 77.1575C54.0055 77.1575 59.658 76.124 64.605 74.2773L67.8805 77.1575C82.9328 90.4259 94.8623 95 109.47 95C124.077 95 132.551 87.6401 138.46 79.2783L138.235 79.0536C129.761 84.9622 121.619 88.1973 110.359 88.1973H110.368ZM47.7015 69.0202C26.0712 69.0202 14.6944 52.7413 14.6944 38.5787C14.6944 24.4161 25.8465 8.1417 47.4813 8.1417C69.1162 8.1417 80.4885 24.4206 80.4885 38.5832C80.4885 48.1493 75.3932 58.6769 65.4183 64.5046L49.1528 50.1802H35.772V50.5127C37.3312 50.9575 39.2273 51.964 40.2338 52.8537L57.2855 67.843C54.3605 68.6024 51.1703 69.0247 47.706 69.0247L47.7015 69.0202Z"
    fill="black" />
</svg>