<svg width="71" height="68" viewBox="0 0 71 68" fill="none" xmlns="http://www.w3.org/2000/svg">
  <path fill-rule="evenodd" clip-rule="evenodd"
    d="M35.4875 0L36.0279 0.203614C38.5422 1.1511 41.0484 2.19008 43.4746 3.28791C48.9398 5.66365 53.2574 9.67488 55.7252 14.5662C60.8185 16.9178 65.02 21.0407 67.5147 26.3041L67.5236 26.3228L71 33.9221L67.511 41.7001C65.0127 46.9665 60.8039 51.0964 55.7093 53.4453C53.2389 58.3351 48.9293 62.3394 43.4676 64.7119C41.04 65.814 38.5373 66.8493 36.0241 67.7964L35.4837 68L34.9434 67.7964C32.4291 66.8489 29.923 65.81 27.4968 64.7122C22.0315 62.3364 17.7139 58.3252 15.2461 53.4338C10.1565 51.0839 5.95744 46.9654 3.46202 41.7075C2.31316 39.3837 1.22998 36.9874 0.238853 34.5801L0 34L0.238853 33.4199C1.2303 31.0119 2.31735 28.6119 3.46591 26.2887C5.96483 21.0277 10.171 16.9019 15.2619 14.5547C17.7323 9.66492 22.0419 5.66065 27.5036 3.2882C29.9312 2.18608 32.4339 1.1507 34.9472 0.203614L35.4875 0ZM35.4875 3.26474C33.2131 4.1341 30.9532 5.07575 28.7589 6.0722L28.7353 6.08295C23.7091 8.26332 19.8624 11.9618 17.7763 16.3732L17.5302 16.8938L17.0008 17.1225C12.3597 19.1278 8.49455 22.8231 6.22548 27.6063L6.21481 27.6287C5.18718 29.7068 4.20975 31.8483 3.30923 34.0001C4.20946 36.1519 5.18351 38.2903 6.21083 40.3677L6.22208 40.3905C8.48721 45.1694 12.3444 48.8579 16.9865 50.867L17.5157 51.096L17.7616 51.6168C19.8437 56.0273 23.6975 59.7333 28.728 61.9174L28.7496 61.9268C30.9456 62.9207 33.2094 63.8656 35.4838 64.7353C37.7582 63.8659 40.0181 62.9243 42.2123 61.9278L42.236 61.917C47.2621 59.7367 51.1088 56.0382 53.1949 51.6268L53.4411 51.1062L53.9704 50.8775C58.6069 48.8742 62.4689 45.1844 64.7389 40.4082L67.6428 33.9344L64.7451 27.6004C62.4794 22.8258 58.6239 19.1409 53.9848 17.133L53.4555 16.904L53.2097 16.3832C51.1276 11.9727 47.2738 8.26671 42.2432 6.08256L42.2216 6.07316C40.0257 5.07927 37.7619 4.13436 35.4875 3.26474Z"
    fill="#D22630" />
</svg>