<svg width="634" height="122" viewBox="0 0 634 122" fill="none" xmlns="http://www.w3.org/2000/svg">
  <path
    d="M69.7354 81.2746C73.5161 83.442 76.5599 86.4305 79.2589 89.8009C79.689 90.3379 80.0496 90.9266 80.3496 91.5458L89.8829 111.223C91.5555 114.675 95.0557 116.866 98.8919 116.863L533.458 116.45C537.535 116.446 541.177 113.958 542.725 110.186C544.968 104.723 547.389 99.3552 550.689 94.4229C553.138 90.7848 556.125 87.3594 559.369 84.3808C561.647 82.2745 564.633 80.6788 567.598 79.6151C572.691 77.7854 578.213 79.5937 581.113 83.4233C584.186 87.487 584.379 94.2526 581.436 98.4652C579.824 100.784 577.633 102.38 574.689 102.146C572.046 101.912 569.425 101.401 566.804 100.891L566.803 100.891C564.445 100.417 562.175 101.921 562.65 104.279C563.887 110.421 568.001 116.196 573.185 118.847C581.199 122.953 591.857 121.443 595.23 112.082C595.419 111.614 596.221 111.989 596.608 112.312C596.994 112.633 597.403 112.978 597.787 113.358C602.127 117.592 607.176 118.741 613.085 117.188C622.797 114.656 631.37 104.912 632.165 95.0825C632.219 94.5889 632.078 94.0787 631.929 93.5988C631.775 93.1046 631.339 92.3636 630.876 92.5933C629.457 93.2528 627.996 93.8697 626.6 94.593C616.888 99.5715 608.143 97.9334 601.16 89.6146C598.775 86.7637 596.906 83.5086 594.693 80.4874C592.372 77.3386 590.181 74.0621 587.559 71.1899C581.328 64.403 573.507 62.5094 564.59 64.5519C556.426 66.4241 549.958 70.9771 544.243 76.8067C542.264 78.8304 538.918 78.0638 537.694 75.512C536.464 72.9481 534.94 70.7122 532.662 68.9986C532.258 68.6945 531.852 68.3936 531.443 68.0947C526.694 64.62 527.227 57.6544 531.719 53.8534C534.377 51.6046 536.604 48.9576 538.106 45.6072C539.033 43.538 541.921 42.7691 543.469 44.4253C548.025 49.2761 553.203 53.3397 559.412 55.914C571.466 60.9351 582.553 57.9991 590.395 47.7017C592.351 45.1486 594.026 42.4254 595.831 39.7872C597.335 37.5958 598.754 35.3193 600.408 33.2343C607.756 24.0432 616.544 22.2348 626.987 27.6601C627.578 27.9711 628.173 28.2782 628.796 28.5965C630.166 29.2966 632.249 28.5793 632.165 27.043C631.499 16.2563 621.4 5.63987 610.614 4.27823C606.102 3.70379 602.105 4.81007 598.668 7.80993C597.084 9.17385 594.592 8.34651 593.479 6.57724C591.539 3.49397 588.529 1.89482 584.809 1.2783C579.437 0.384723 574.496 1.64007 570.22 5.08672C565.686 8.72485 563.43 13.6607 562.076 19.1073C561.646 20.7747 563.675 21.9914 565.322 21.4865C565.891 21.3122 566.439 21.1657 566.997 21.0646C569.79 20.5752 572.626 19.9583 575.419 20.0221C577.031 20.0434 578.9 21.0009 580.147 22.1072C583.627 25.1922 584.487 31.9577 582.338 36.4894C580.211 40.9785 575.076 43.5742 569.876 42.9147C565.428 42.3615 561.819 40.1276 558.596 37.2128C554.449 33.4683 551.097 29.0855 548.605 24.1283C546.484 19.9124 544.52 15.6339 542.486 11.1979C540.865 7.66211 537.329 5.40672 533.439 5.4082L99.6566 5.57342C95.5517 5.57499 91.8901 8.09537 90.3305 11.8924C87.6996 18.2976 84.8329 24.4504 80.7793 30.0216C78.6952 32.8513 76.2027 35.4682 73.6029 37.8724C70.6807 40.5531 67.2429 42.4253 63.1391 42.8934C57.8105 43.5103 52.8902 40.9786 50.7631 36.383C48.6359 31.8088 49.5812 25.0431 53.062 22.022C54.3082 20.937 56.2205 20.0008 57.8105 20.0008C60.7971 20.0008 63.7836 20.7242 66.7487 21.2348C69.0401 21.6068 71.1652 20.0135 70.6446 17.7513C69.6476 13.4186 67.6321 9.84349 64.6431 6.66109C60.5822 2.34214 55.4685 0.597554 49.6242 1.08689C44.9188 1.46985 41.0512 3.46967 38.8381 7.89499C38.1742 9.2443 36.2488 9.32968 35.1065 8.35169C28.2406 2.47349 22.5698 3.23965 15.5899 6.4058C6.88801 10.3418 2.76272 17.8946 1.02233 26.8516C0.725318 28.4902 3.24906 29.1782 4.72232 28.402C5.51704 27.9832 6.26452 27.5909 7.01695 27.2133C16.4279 22.5114 24.7001 24.0007 31.5972 31.9152C33.9178 34.5959 35.6797 37.7235 37.8068 40.5744C40.557 44.2763 43.1354 48.191 46.2939 51.51C52.0307 57.5097 59.293 59.2756 67.4363 57.7225C76.6539 55.9567 83.7015 50.7015 89.9325 44.1061C91.402 42.5272 94.1161 43.2854 94.971 45.2657C97.7597 51.7259 103.032 55.6567 109.141 58.8714C110.684 59.6512 110.43 61.9812 109.011 62.9674C105.954 65.0912 103.045 67.0929 100.224 69.2326C97.2932 71.4652 95.7503 74.6064 94.3922 78.0289C93.7741 79.5866 91.7846 79.8816 90.663 78.6363C85.7426 73.126 80.1132 68.5731 73.1087 65.8285C62.0648 61.5096 52.3101 63.6371 44.4246 72.4026C42.19 74.8918 40.3637 77.7853 38.4085 80.5299C36.6681 82.9979 35.1211 85.6148 33.2947 88.0189C25.6671 98.0397 16.5999 99.9332 5.57741 93.9548C5.33656 93.8247 5.09305 93.7017 4.84376 93.582C3.21598 92.8002 0.936918 93.973 1.17275 95.7633C2.52638 106.231 10.949 115.145 21.3484 117.443C26.2902 118.549 30.5445 117.379 34.3691 114.294C36.0317 112.957 38.4672 113.525 39.6811 115.28C41.4158 117.788 43.6974 119.469 46.8311 120.337C57.2621 123.212 68.4732 115.368 70.5569 104.851C71.0925 102.147 68.4262 100.53 65.7174 101.04C63.0961 101.529 60.4103 102.167 57.8105 101.976C56.0486 101.827 53.9216 100.784 52.7613 99.4652C47.3682 93.274 48.8937 81.7852 58.4551 79.296C62.6019 78.211 66.2546 79.296 69.7354 81.2746Z"
    stroke="#69626D" stroke-width="2" stroke-miterlimit="10" />
</svg>