<svg width="352" height="83" viewBox="0 0 352 83" fill="none" xmlns="http://www.w3.org/2000/svg">
  <path
    d="M47.0183 55.0678C49.4515 56.4712 51.4288 58.3855 53.1834 60.5481C53.6158 61.081 53.9725 61.6702 54.2703 62.2884L59.6083 73.3727C61.2769 76.8376 64.7847 79.0386 68.6305 79.0337L282.666 78.7636C286.749 78.7585 290.359 76.2467 291.967 72.4933C293.238 69.5247 294.646 66.6271 296.444 63.9237C298.084 61.4733 300.083 59.1661 302.256 57.1599C303.78 55.7413 305.78 54.6666 307.765 53.9501C311.174 52.7177 314.871 53.9357 316.813 56.5151C318.87 59.2521 319 63.809 317.029 66.6463C315.95 68.2083 314.483 69.2831 312.512 69.1254C310.743 68.9678 308.988 68.6239 307.233 68.28C305.655 67.961 304.135 68.9662 304.449 70.5451C305.273 74.6885 308.03 78.586 311.505 80.3744C316.871 83.14 324.006 82.1226 326.264 75.8175C326.39 75.504 326.928 75.7549 327.186 75.9719C327.445 76.1887 327.719 76.4213 327.976 76.6772C330.882 79.5289 334.262 80.3027 338.218 79.2567C344.72 77.5514 350.46 70.9883 350.992 64.3679C351.028 64.0345 350.934 63.6899 350.833 63.3659C350.731 63.0346 350.439 62.5367 350.129 62.6913C349.18 63.1356 348.201 63.551 347.266 64.0383C340.764 67.3914 334.91 66.2881 330.235 60.6851C328.638 58.7649 327.386 56.5725 325.905 54.5376C324.351 52.4168 322.884 50.2099 321.129 48.2754C316.957 43.7042 311.721 42.4288 305.751 43.8045C300.285 45.0655 295.955 48.1321 292.129 52.0585C290.807 53.4181 288.563 52.9059 287.748 51.1943C286.923 49.4642 285.902 47.9554 284.375 46.7995C284.093 46.5861 283.81 46.375 283.525 46.1654C280.351 43.8319 280.708 39.1726 283.713 36.6251C285.508 35.1031 287.012 33.3104 288.023 31.0372C288.64 29.6495 290.577 29.136 291.611 30.2485C294.66 33.5157 298.127 36.2527 302.285 37.9866C310.355 41.3684 317.777 39.3909 323.028 32.4552C324.337 30.7357 325.459 28.9015 326.667 27.1246C327.674 25.6486 328.624 24.1153 329.731 22.7109C334.651 16.5204 340.534 15.3024 347.526 18.9565C347.919 19.1647 348.315 19.3702 348.729 19.5832C349.649 20.0561 351.048 19.5738 350.992 18.5409C350.546 11.2757 343.785 4.12512 336.564 3.208C333.543 2.8211 330.868 3.56622 328.566 5.58673C327.508 6.50323 325.837 5.95058 325.096 4.76305C323.798 2.68206 321.781 1.60313 319.288 1.18744C315.691 0.585589 312.383 1.43111 309.52 3.75255C306.485 6.20296 304.974 9.52745 304.068 13.1959C303.78 14.3186 305.145 15.1356 306.253 14.7947C306.629 14.6789 306.993 14.5816 307.362 14.5142C309.232 14.1846 311.131 13.7691 313.001 13.8121C314.08 13.8264 315.332 14.4713 316.166 15.2165C318.496 17.2943 319.072 21.8511 317.633 24.9034C316.209 27.927 312.771 29.6753 309.29 29.231C306.312 28.8585 303.896 27.3538 301.738 25.3906C298.961 22.8686 296.718 19.9166 295.049 16.5777C293.934 14.3488 292.885 12.094 291.826 9.78223C290.203 6.23759 286.669 3.96871 282.771 3.97068L69.3127 4.07866C65.2008 4.08074 61.5668 6.62387 59.943 10.4015C58.4082 13.972 56.6901 17.3975 54.4122 20.5471C53.0169 22.453 51.3482 24.2156 49.6076 25.8348C47.6512 27.6404 45.3496 28.9014 42.6021 29.2167C39.0346 29.6322 35.7405 27.927 34.3164 24.8317C32.8922 21.7508 33.5251 17.1939 35.8555 15.1591C36.6898 14.4283 37.9701 13.7977 39.0346 13.7977C41.0341 13.7977 43.0336 14.285 45.0187 14.6289C46.5524 14.8793 47.9759 13.8149 47.6309 12.2996C46.9647 9.37372 45.614 6.96057 43.609 4.81294C40.8903 1.90398 37.4666 0.728937 33.5539 1.05852C30.4036 1.31646 27.8142 2.66341 26.3326 5.64402C25.8894 6.55028 24.5967 6.60808 23.8322 5.94982C19.2364 1.9926 15.4403 2.50881 10.768 4.641C4.94202 7.29203 2.18014 12.3791 1.01495 18.412C0.816475 19.5135 2.51095 19.9763 3.49989 19.4521C4.02905 19.1716 4.52706 18.9087 5.02834 18.6556C11.329 15.4887 16.8672 16.4918 21.4848 21.8225C23.0384 23.6281 24.218 25.7346 25.6421 27.6548C27.4834 30.1482 29.2096 32.7848 31.3242 35.0203C35.165 39.0613 40.0271 40.2507 45.4791 39.2047C51.6502 38.0153 56.3686 34.4758 60.5402 30.0335C61.5213 28.973 63.3414 29.4794 63.9104 30.8073C65.7767 35.1628 69.3082 37.812 73.4005 39.9784C74.4367 40.5055 74.2652 42.0717 73.3124 42.7378C71.2665 44.168 69.3189 45.5161 67.4306 46.9571C65.4671 48.4617 64.4341 50.5789 63.5245 52.8856C63.1126 53.9302 61.7783 54.1274 61.0293 53.2908C57.7351 49.5794 53.9663 46.5129 49.2767 44.6643C41.8828 41.7554 35.3521 43.1883 30.0728 49.0922C28.5767 50.7688 27.354 52.7177 26.045 54.5662C24.8798 56.2285 23.844 57.9911 22.6213 59.6104C17.5146 66.3597 11.4441 67.6351 4.06457 63.6084C3.90689 63.5227 3.7475 63.4416 3.58445 63.3626C2.4912 62.8332 0.957955 63.6221 1.11566 64.8265C2.02191 71.8768 7.66087 77.881 14.6232 79.4286C17.9318 80.1738 20.78 79.3856 23.3406 77.3077C24.4515 76.4086 26.0845 76.7885 26.8935 77.9667C28.0553 79.6587 29.5838 80.7925 31.6839 81.3775C38.6737 83.3158 46.1868 78.0212 47.572 70.9279C47.9256 69.1175 46.1408 68.0374 44.3283 68.3802C42.5733 68.7098 40.7752 69.1397 39.0346 69.0108C37.855 68.9105 36.4309 68.2083 35.6542 67.3199C32.0435 63.1499 33.0648 55.4118 39.4661 53.7352C42.2424 53.0043 44.6879 53.7351 47.0183 55.0678Z"
    stroke="#69626D" stroke-width="2" stroke-miterlimit="10" />
</svg>